<?xml version="1.0" encoding="UTF-8"?>
<svg width="512pt" height="512pt" version="1.1" viewBox="0 0 512 512" xmlns="http://www.w3.org/2000/svg">
 <g fill="#fff">
  <path d="m256 445.44c-104.45 0-189.44-84.992-189.44-189.44s84.992-189.44 189.44-189.44 189.44 84.992 189.44 189.44-84.992 189.44-189.44 189.44zm0-368.64c-98.816 0-179.2 80.383-179.2 179.2s80.383 179.2 179.2 179.2 179.2-80.383 179.2-179.2-80.383-179.2-179.2-179.2z"/>
  <path d="m209.92 332.8c-1.0234 0-1.5352 0-2.5586-0.51172-1.5391-1.0234-2.5625-2.5625-2.5625-4.6094v-143.36c0-2.0469 1.0234-3.5859 2.5586-4.6094 1.5352-1.0234 3.5859-1.0234 5.1211 0l122.88 71.68c1.5352 1.0234 2.5586 2.5586 2.5586 4.6094 0 2.0469-1.0234 3.5859-2.5586 4.6094l-122.88 71.68c-1.0234 0.51172-1.5352 0.51172-2.5586 0.51172zm5.1172-139.78v125.44l107.52-62.465z"/>
 </g>
</svg>
